<svg xmlns="http://www.w3.org/2000/svg" xmlns:xlink="http://www.w3.org/1999/xlink" width="69" height="54.634" viewBox="0 0 69 54.634"><defs><linearGradient id="a" x1="0.5" x2="0.5" y2="1" gradientUnits="objectBoundingBox"><stop offset="0" stop-color="#4e71ff"/><stop offset="1" stop-color="#ff8af7"/></linearGradient><filter id="c" x="0" y="3.592" width="69" height="51.042" filterUnits="userSpaceOnUse"><feOffset dy="3" input="SourceAlpha"/><feGaussianBlur stdDeviation="3" result="d"/><feFlood flood-opacity="0.161"/><feComposite operator="in" in2="d"/><feComposite in="SourceGraphic"/></filter><filter id="f" x="0" y="0" width="69" height="51.042" filterUnits="userSpaceOnUse"><feOffset dy="3" input="SourceAlpha"/><feGaussianBlur stdDeviation="3" result="g"/><feFlood flood-opacity="0.161"/><feComposite operator="in" in2="g"/><feComposite in="SourceGraphic"/></filter><linearGradient id="h" x1="0.5" x2="0.5" y2="1" gradientUnits="objectBoundingBox"><stop offset="0" stop-color="#fff"/><stop offset="1" stop-color="#ccc"/></linearGradient><filter id="i" x="14.054" y="7.084" width="33.387" height="30.174" filterUnits="userSpaceOnUse"><feOffset dy="3" input="SourceAlpha"/><feGaussianBlur stdDeviation="3" result="j"/><feFlood flood-opacity="0.161"/><feComposite operator="in" in2="j"/><feComposite in="SourceGraphic"/></filter><filter id="l" x="20.306" y="12.97" width="35.771" height="31.802" filterUnits="userSpaceOnUse"><feOffset dy="3" input="SourceAlpha"/><feGaussianBlur stdDeviation="3" result="m"/><feFlood flood-opacity="0.161"/><feComposite operator="in" in2="m"/><feComposite in="SourceGraphic"/></filter></defs><g transform="translate(-418.5 -103)"><path d="M22.238,2.114a6,6,0,0,1,6.525,0l14.465,9.372a6,6,0,0,1,0,10.071L28.762,30.929a6,6,0,0,1-6.525,0L7.772,21.557a6,6,0,0,1,0-10.071Z" transform="translate(427.5 116.183)" fill="url(#a)"/><g transform="matrix(1, 0, 0, 1, 418.5, 103)" filter="url(#c)"><path d="M22.238,2.114a6,6,0,0,1,6.525,0l14.465,9.372a6,6,0,0,1,0,10.071L28.762,30.929a6,6,0,0,1-6.525,0L7.772,21.557a6,6,0,0,1,0-10.071Z" transform="translate(9 9.59)" fill="url(#a)"/></g><g transform="matrix(1, 0, 0, 1, 418.5, 103)" filter="url(#f)"><path d="M22.238,2.114a6,6,0,0,1,6.525,0l14.465,9.372a6,6,0,0,1,0,10.071L28.762,30.929a6,6,0,0,1-6.525,0L7.772,21.557a6,6,0,0,1,0-10.071Z" transform="translate(9 6)" fill="url(#a)"/></g><g transform="matrix(0.739, -0.537, 0.673, 0.57, 440.106, 123.346)"><g transform="matrix(0.73, 0.69, -0.86, 0.94, 1.76, -34.02)" filter="url(#i)"><circle cx="5.387" cy="5.387" r="5.387" transform="matrix(0.74, -0.54, 0.67, 0.57, 23.28, 19.13)" fill="url(#h)"/></g><g transform="matrix(0.73, 0.69, -0.86, 0.94, 1.76, -34.02)" filter="url(#l)"><path d="M7.29,0a7.29,7.29,0,0,1,7.29,7.29C14.581,11.317,0,11.317,0,7.29A7.29,7.29,0,0,1,7.29,0Z" transform="matrix(0.74, -0.54, 0.67, 0.57, 29.35, 26.9)" fill="url(#h)"/></g></g></g></svg>